<?xml version="1.0" encoding="UTF-8"?><svg id="Layer_1" xmlns="http://www.w3.org/2000/svg" viewBox="0 0 468 131"><defs><style>.cls-1{fill:#4545ff;}.cls-2{fill:#bbbdbf;}.cls-3{fill:none;}</style></defs><polygon class="cls-3" points="79 131 0 131 0 94 99 94 79 131"/><polygon class="cls-2" points="78.49 100.35 0 100.35 0 0 134.93 0 78.49 100.35"/><polygon points="77.17 131 0 131 0 100.35 78.49 100.35 134.93 0 207.98 0 156.29 91.88 99.13 91.88 77.17 131"/><polygon class="cls-2" points="241.07 0 207.98 0 156.29 91.88 189.38 91.88 241.07 0"/><polygon class="cls-1" points="256.19 0 241.07 0 189.38 91.88 204.5 91.88 256.19 0"/><polygon points="263.62 0 256.06 0 204.38 91.88 211.94 91.88 263.62 0"/></svg>